{
	"asset":{
		"generator":"Khronos glTF Blender I/O v3.6.28",
		"version":"2.0"
	},
	"scene":0,
	"scenes":[
		{
			"name":"Scene",
			"nodes":[
				0,
				1,
				2,
				3,
				4,
				5,
				6,
				7
			]
		}
	],
	"nodes":[
		{
			"mesh":0,
			"name":"Cylinder",
			"scale":[
				1,
				5.4243693351745605,
				1
			],
			"translation":[
				0.06772710382938385,
				5.427379131317139,
				5.617559432983398
			]
		},
		{
			"mesh":1,
			"name":"Cylinder.001",
			"scale":[
				1,
				5.4243693351745605,
				1
			],
			"translation":[
				0.06772710382938385,
				5.427379131317139,
				-5.617557525634766
			]
		},
		{
			"mesh":2,
			"name":"Cylinder.002",
			"scale":[
				1,
				5.4243693351745605,
				1
			],
			"translation":[
				0.06772710382938385,
				5.485895156860352,
				11.17660140991211
			]
		},
		{
			"mesh":3,
			"name":"Cylinder.004",
			"scale":[
				1,
				5.4243693351745605,
				1
			],
			"translation":[
				0.06772710382938385,
				5.544411659240723,
				-11.293632507324219
			]
		},
		{
			"mesh":4,
			"name":"Cube",
			"scale":[
				0.427015483379364,
				4.47636079788208,
				4.47636079788208
			],
			"translation":[
				0,
				5.032394886016846,
				0
			]
		},
		{
			"mesh":5,
			"name":"Cube.001",
			"rotation":[
				0,
				0,
				-1,
				0
			],
			"scale":[
				-0.3213481903076172,
				-4.731461524963379,
				-2.6828067302703857
			],
			"translation":[
				0,
				4.8275885581970215,
				8.48485279083252
			]
		},
		{
			"mesh":6,
			"name":"Cube.003",
			"rotation":[
				0,
				0,
				-1,
				0
			],
			"scale":[
				-0.3213481903076172,
				-4.731461524963379,
				-2.6828067302703857
			],
			"translation":[
				0,
				4.8275885581970215,
				-8.582379341125488
			]
		},
		{
			"mesh":7,
			"name":"Cylinder.003",
			"scale":[
				0.6928431987762451,
				0.6928431987762451,
				0.6928431987762451
			],
			"translation":[
				0,
				5.0388970375061035,
				4.510625839233398
			]
		}
	],
	"animations":[
		{
			"channels":[
				{
					"sampler":0,
					"target":{
						"node":0,
						"path":"translation"
					}
				},
				{
					"sampler":1,
					"target":{
						"node":0,
						"path":"rotation"
					}
				},
				{
					"sampler":2,
					"target":{
						"node":0,
						"path":"scale"
					}
				}
			],
			"name":"CylinderAction",
			"samplers":[
				{
					"input":30,
					"interpolation":"STEP",
					"output":31
				},
				{
					"input":30,
					"interpolation":"STEP",
					"output":32
				},
				{
					"input":30,
					"interpolation":"STEP",
					"output":33
				}
			]
		},
		{
			"channels":[
				{
					"sampler":0,
					"target":{
						"node":1,
						"path":"translation"
					}
				},
				{
					"sampler":1,
					"target":{
						"node":1,
						"path":"rotation"
					}
				},
				{
					"sampler":2,
					"target":{
						"node":1,
						"path":"scale"
					}
				}
			],
			"name":"Cylinder.001Action",
			"samplers":[
				{
					"input":30,
					"interpolation":"STEP",
					"output":34
				},
				{
					"input":30,
					"interpolation":"STEP",
					"output":35
				},
				{
					"input":30,
					"interpolation":"STEP",
					"output":36
				}
			]
		},
		{
			"channels":[
				{
					"sampler":0,
					"target":{
						"node":2,
						"path":"translation"
					}
				},
				{
					"sampler":1,
					"target":{
						"node":2,
						"path":"rotation"
					}
				},
				{
					"sampler":2,
					"target":{
						"node":2,
						"path":"scale"
					}
				}
			],
			"name":"Cylinder.002Action",
			"samplers":[
				{
					"input":30,
					"interpolation":"STEP",
					"output":37
				},
				{
					"input":30,
					"interpolation":"STEP",
					"output":38
				},
				{
					"input":30,
					"interpolation":"STEP",
					"output":39
				}
			]
		},
		{
			"channels":[
				{
					"sampler":0,
					"target":{
						"node":3,
						"path":"translation"
					}
				},
				{
					"sampler":1,
					"target":{
						"node":3,
						"path":"rotation"
					}
				},
				{
					"sampler":2,
					"target":{
						"node":3,
						"path":"scale"
					}
				}
			],
			"name":"Cylinder.004Action",
			"samplers":[
				{
					"input":30,
					"interpolation":"STEP",
					"output":40
				},
				{
					"input":30,
					"interpolation":"STEP",
					"output":41
				},
				{
					"input":30,
					"interpolation":"STEP",
					"output":42
				}
			]
		},
		{
			"channels":[
				{
					"sampler":0,
					"target":{
						"node":4,
						"path":"translation"
					}
				},
				{
					"sampler":1,
					"target":{
						"node":4,
						"path":"rotation"
					}
				},
				{
					"sampler":2,
					"target":{
						"node":4,
						"path":"scale"
					}
				}
			],
			"name":"CubeAction",
			"samplers":[
				{
					"input":43,
					"interpolation":"LINEAR",
					"output":44
				},
				{
					"input":43,
					"interpolation":"LINEAR",
					"output":45
				},
				{
					"input":30,
					"interpolation":"STEP",
					"output":46
				}
			]
		},
		{
			"channels":[
				{
					"sampler":0,
					"target":{
						"node":5,
						"path":"translation"
					}
				},
				{
					"sampler":1,
					"target":{
						"node":5,
						"path":"rotation"
					}
				},
				{
					"sampler":2,
					"target":{
						"node":5,
						"path":"scale"
					}
				}
			],
			"name":"Cube.001Action",
			"samplers":[
				{
					"input":30,
					"interpolation":"STEP",
					"output":47
				},
				{
					"input":30,
					"interpolation":"STEP",
					"output":48
				},
				{
					"input":30,
					"interpolation":"STEP",
					"output":49
				}
			]
		},
		{
			"channels":[
				{
					"sampler":0,
					"target":{
						"node":6,
						"path":"translation"
					}
				},
				{
					"sampler":1,
					"target":{
						"node":6,
						"path":"rotation"
					}
				},
				{
					"sampler":2,
					"target":{
						"node":6,
						"path":"scale"
					}
				}
			],
			"name":"Cube.003Action",
			"samplers":[
				{
					"input":30,
					"interpolation":"STEP",
					"output":50
				},
				{
					"input":30,
					"interpolation":"STEP",
					"output":51
				},
				{
					"input":30,
					"interpolation":"STEP",
					"output":52
				}
			]
		},
		{
			"channels":[
				{
					"sampler":0,
					"target":{
						"node":7,
						"path":"translation"
					}
				},
				{
					"sampler":1,
					"target":{
						"node":7,
						"path":"rotation"
					}
				},
				{
					"sampler":2,
					"target":{
						"node":7,
						"path":"scale"
					}
				}
			],
			"name":"Cylinder.003Action",
			"samplers":[
				{
					"input":30,
					"interpolation":"STEP",
					"output":53
				},
				{
					"input":30,
					"interpolation":"STEP",
					"output":54
				},
				{
					"input":30,
					"interpolation":"STEP",
					"output":55
				}
			]
		}
	],
	"meshes":[
		{
			"name":"Cylinder",
			"primitives":[
				{
					"attributes":{
						"POSITION":0,
						"NORMAL":1,
						"TEXCOORD_0":2
					},
					"indices":3
				}
			]
		},
		{
			"name":"Cylinder.001",
			"primitives":[
				{
					"attributes":{
						"POSITION":4,
						"NORMAL":5,
						"TEXCOORD_0":6
					},
					"indices":3
				}
			]
		},
		{
			"name":"Cylinder.002",
			"primitives":[
				{
					"attributes":{
						"POSITION":7,
						"NORMAL":8,
						"TEXCOORD_0":9
					},
					"indices":3
				}
			]
		},
		{
			"name":"Cylinder.004",
			"primitives":[
				{
					"attributes":{
						"POSITION":10,
						"NORMAL":11,
						"TEXCOORD_0":12
					},
					"indices":3
				}
			]
		},
		{
			"name":"Cube.001",
			"primitives":[
				{
					"attributes":{
						"POSITION":13,
						"NORMAL":14,
						"TEXCOORD_0":15,
						"TANGENT":16
					},
					"indices":17
				}
			]
		},
		{
			"name":"Cube.002",
			"primitives":[
				{
					"attributes":{
						"POSITION":18,
						"NORMAL":19,
						"TEXCOORD_0":20,
						"TANGENT":21
					},
					"indices":22
				}
			]
		},
		{
			"name":"Cube.004",
			"primitives":[
				{
					"attributes":{
						"POSITION":23,
						"NORMAL":24,
						"TEXCOORD_0":25,
						"TANGENT":26
					},
					"indices":22
				}
			]
		},
		{
			"name":"Cylinder.005",
			"primitives":[
				{
					"attributes":{
						"POSITION":27,
						"NORMAL":28,
						"TEXCOORD_0":29
					},
					"indices":3
				}
			]
		}
	],
	"accessors":[
		{
			"bufferView":0,
			"componentType":5126,
			"count":192,
			"max":[
				1,
				1,
				1
			],
			"min":[
				-1,
				-1,
				-1
			],
			"type":"VEC3"
		},
		{
			"bufferView":1,
			"componentType":5126,
			"count":192,
			"type":"VEC3"
		},
		{
			"bufferView":2,
			"componentType":5126,
			"count":192,
			"type":"VEC2"
		},
		{
			"bufferView":3,
			"componentType":5123,
			"count":372,
			"type":"SCALAR"
		},
		{
			"bufferView":4,
			"componentType":5126,
			"count":192,
			"max":[
				1,
				1,
				1
			],
			"min":[
				-1,
				-1,
				-1
			],
			"type":"VEC3"
		},
		{
			"bufferView":5,
			"componentType":5126,
			"count":192,
			"type":"VEC3"
		},
		{
			"bufferView":6,
			"componentType":5126,
			"count":192,
			"type":"VEC2"
		},
		{
			"bufferView":7,
			"componentType":5126,
			"count":192,
			"max":[
				1,
				1,
				1
			],
			"min":[
				-1,
				-1,
				-1
			],
			"type":"VEC3"
		},
		{
			"bufferView":8,
			"componentType":5126,
			"count":192,
			"type":"VEC3"
		},
		{
			"bufferView":9,
			"componentType":5126,
			"count":192,
			"type":"VEC2"
		},
		{
			"bufferView":10,
			"componentType":5126,
			"count":192,
			"max":[
				1,
				1,
				1
			],
			"min":[
				-1,
				-1,
				-1
			],
			"type":"VEC3"
		},
		{
			"bufferView":11,
			"componentType":5126,
			"count":192,
			"type":"VEC3"
		},
		{
			"bufferView":12,
			"componentType":5126,
			"count":192,
			"type":"VEC2"
		},
		{
			"bufferView":13,
			"componentType":5126,
			"count":63,
			"max":[
				1.0000003576278687,
				1,
				1
			],
			"min":[
				-1,
				-1,
				-1
			],
			"type":"VEC3"
		},
		{
			"bufferView":14,
			"componentType":5126,
			"count":63,
			"type":"VEC3"
		},
		{
			"bufferView":15,
			"componentType":5126,
			"count":63,
			"type":"VEC2"
		},
		{
			"bufferView":16,
			"componentType":5126,
			"count":63,
			"type":"VEC4"
		},
		{
			"bufferView":17,
			"componentType":5123,
			"count":132,
			"type":"SCALAR"
		},
		{
			"bufferView":18,
			"componentType":5126,
			"count":24,
			"max":[
				1,
				1,
				1
			],
			"min":[
				-1,
				-1,
				-1
			],
			"type":"VEC3"
		},
		{
			"bufferView":19,
			"componentType":5126,
			"count":24,
			"type":"VEC3"
		},
		{
			"bufferView":20,
			"componentType":5126,
			"count":24,
			"type":"VEC2"
		},
		{
			"bufferView":21,
			"componentType":5126,
			"count":24,
			"type":"VEC4"
		},
		{
			"bufferView":22,
			"componentType":5123,
			"count":36,
			"type":"SCALAR"
		},
		{
			"bufferView":23,
			"componentType":5126,
			"count":24,
			"max":[
				1,
				1,
				1
			],
			"min":[
				-1,
				-1,
				-1
			],
			"type":"VEC3"
		},
		{
			"bufferView":24,
			"componentType":5126,
			"count":24,
			"type":"VEC3"
		},
		{
			"bufferView":25,
			"componentType":5126,
			"count":24,
			"type":"VEC2"
		},
		{
			"bufferView":26,
			"componentType":5126,
			"count":24,
			"type":"VEC4"
		},
		{
			"bufferView":27,
			"componentType":5126,
			"count":192,
			"max":[
				1,
				1,
				1
			],
			"min":[
				-1,
				-1,
				-1
			],
			"type":"VEC3"
		},
		{
			"bufferView":28,
			"componentType":5126,
			"count":192,
			"type":"VEC3"
		},
		{
			"bufferView":29,
			"componentType":5126,
			"count":192,
			"type":"VEC2"
		},
		{
			"bufferView":30,
			"componentType":5126,
			"count":2,
			"max":[
				0.8333333333333334
			],
			"min":[
				0.041666666666666664
			],
			"type":"SCALAR"
		},
		{
			"bufferView":31,
			"componentType":5126,
			"count":2,
			"type":"VEC3"
		},
		{
			"bufferView":32,
			"componentType":5126,
			"count":2,
			"type":"VEC4"
		},
		{
			"bufferView":33,
			"componentType":5126,
			"count":2,
			"type":"VEC3"
		},
		{
			"bufferView":34,
			"componentType":5126,
			"count":2,
			"type":"VEC3"
		},
		{
			"bufferView":35,
			"componentType":5126,
			"count":2,
			"type":"VEC4"
		},
		{
			"bufferView":36,
			"componentType":5126,
			"count":2,
			"type":"VEC3"
		},
		{
			"bufferView":37,
			"componentType":5126,
			"count":2,
			"type":"VEC3"
		},
		{
			"bufferView":38,
			"componentType":5126,
			"count":2,
			"type":"VEC4"
		},
		{
			"bufferView":39,
			"componentType":5126,
			"count":2,
			"type":"VEC3"
		},
		{
			"bufferView":40,
			"componentType":5126,
			"count":2,
			"type":"VEC3"
		},
		{
			"bufferView":41,
			"componentType":5126,
			"count":2,
			"type":"VEC4"
		},
		{
			"bufferView":42,
			"componentType":5126,
			"count":2,
			"type":"VEC3"
		},
		{
			"bufferView":43,
			"componentType":5126,
			"count":20,
			"max":[
				0.8333333333333334
			],
			"min":[
				0.041666666666666664
			],
			"type":"SCALAR"
		},
		{
			"bufferView":44,
			"componentType":5126,
			"count":20,
			"type":"VEC3"
		},
		{
			"bufferView":45,
			"componentType":5126,
			"count":20,
			"type":"VEC4"
		},
		{
			"bufferView":46,
			"componentType":5126,
			"count":2,
			"type":"VEC3"
		},
		{
			"bufferView":47,
			"componentType":5126,
			"count":2,
			"type":"VEC3"
		},
		{
			"bufferView":48,
			"componentType":5126,
			"count":2,
			"type":"VEC4"
		},
		{
			"bufferView":49,
			"componentType":5126,
			"count":2,
			"type":"VEC3"
		},
		{
			"bufferView":50,
			"componentType":5126,
			"count":2,
			"type":"VEC3"
		},
		{
			"bufferView":51,
			"componentType":5126,
			"count":2,
			"type":"VEC4"
		},
		{
			"bufferView":52,
			"componentType":5126,
			"count":2,
			"type":"VEC3"
		},
		{
			"bufferView":53,
			"componentType":5126,
			"count":2,
			"type":"VEC3"
		},
		{
			"bufferView":54,
			"componentType":5126,
			"count":2,
			"type":"VEC4"
		},
		{
			"bufferView":55,
			"componentType":5126,
			"count":2,
			"type":"VEC3"
		}
	],
	"bufferViews":[
		{
			"buffer":0,
			"byteLength":2304,
			"byteOffset":0,
			"target":34962
		},
		{
			"buffer":0,
			"byteLength":2304,
			"byteOffset":2304,
			"target":34962
		},
		{
			"buffer":0,
			"byteLength":1536,
			"byteOffset":4608,
			"target":34962
		},
		{
			"buffer":0,
			"byteLength":744,
			"byteOffset":6144,
			"target":34963
		},
		{
			"buffer":0,
			"byteLength":2304,
			"byteOffset":6888,
			"target":34962
		},
		{
			"buffer":0,
			"byteLength":2304,
			"byteOffset":9192,
			"target":34962
		},
		{
			"buffer":0,
			"byteLength":1536,
			"byteOffset":11496,
			"target":34962
		},
		{
			"buffer":0,
			"byteLength":2304,
			"byteOffset":13032,
			"target":34962
		},
		{
			"buffer":0,
			"byteLength":2304,
			"byteOffset":15336,
			"target":34962
		},
		{
			"buffer":0,
			"byteLength":1536,
			"byteOffset":17640,
			"target":34962
		},
		{
			"buffer":0,
			"byteLength":2304,
			"byteOffset":19176,
			"target":34962
		},
		{
			"buffer":0,
			"byteLength":2304,
			"byteOffset":21480,
			"target":34962
		},
		{
			"buffer":0,
			"byteLength":1536,
			"byteOffset":23784,
			"target":34962
		},
		{
			"buffer":0,
			"byteLength":756,
			"byteOffset":25320,
			"target":34962
		},
		{
			"buffer":0,
			"byteLength":756,
			"byteOffset":26076,
			"target":34962
		},
		{
			"buffer":0,
			"byteLength":504,
			"byteOffset":26832,
			"target":34962
		},
		{
			"buffer":0,
			"byteLength":1008,
			"byteOffset":27336,
			"target":34962
		},
		{
			"buffer":0,
			"byteLength":264,
			"byteOffset":28344,
			"target":34963
		},
		{
			"buffer":0,
			"byteLength":288,
			"byteOffset":28608,
			"target":34962
		},
		{
			"buffer":0,
			"byteLength":288,
			"byteOffset":28896,
			"target":34962
		},
		{
			"buffer":0,
			"byteLength":192,
			"byteOffset":29184,
			"target":34962
		},
		{
			"buffer":0,
			"byteLength":384,
			"byteOffset":29376,
			"target":34962
		},
		{
			"buffer":0,
			"byteLength":72,
			"byteOffset":29760,
			"target":34963
		},
		{
			"buffer":0,
			"byteLength":288,
			"byteOffset":29832,
			"target":34962
		},
		{
			"buffer":0,
			"byteLength":288,
			"byteOffset":30120,
			"target":34962
		},
		{
			"buffer":0,
			"byteLength":192,
			"byteOffset":30408,
			"target":34962
		},
		{
			"buffer":0,
			"byteLength":384,
			"byteOffset":30600,
			"target":34962
		},
		{
			"buffer":0,
			"byteLength":2304,
			"byteOffset":30984,
			"target":34962
		},
		{
			"buffer":0,
			"byteLength":2304,
			"byteOffset":33288,
			"target":34962
		},
		{
			"buffer":0,
			"byteLength":1536,
			"byteOffset":35592,
			"target":34962
		},
		{
			"buffer":0,
			"byteLength":8,
			"byteOffset":37128
		},
		{
			"buffer":0,
			"byteLength":24,
			"byteOffset":37136
		},
		{
			"buffer":0,
			"byteLength":32,
			"byteOffset":37160
		},
		{
			"buffer":0,
			"byteLength":24,
			"byteOffset":37192
		},
		{
			"buffer":0,
			"byteLength":24,
			"byteOffset":37216
		},
		{
			"buffer":0,
			"byteLength":32,
			"byteOffset":37240
		},
		{
			"buffer":0,
			"byteLength":24,
			"byteOffset":37272
		},
		{
			"buffer":0,
			"byteLength":24,
			"byteOffset":37296
		},
		{
			"buffer":0,
			"byteLength":32,
			"byteOffset":37320
		},
		{
			"buffer":0,
			"byteLength":24,
			"byteOffset":37352
		},
		{
			"buffer":0,
			"byteLength":24,
			"byteOffset":37376
		},
		{
			"buffer":0,
			"byteLength":32,
			"byteOffset":37400
		},
		{
			"buffer":0,
			"byteLength":24,
			"byteOffset":37432
		},
		{
			"buffer":0,
			"byteLength":80,
			"byteOffset":37456
		},
		{
			"buffer":0,
			"byteLength":240,
			"byteOffset":37536
		},
		{
			"buffer":0,
			"byteLength":320,
			"byteOffset":37776
		},
		{
			"buffer":0,
			"byteLength":24,
			"byteOffset":38096
		},
		{
			"buffer":0,
			"byteLength":24,
			"byteOffset":38120
		},
		{
			"buffer":0,
			"byteLength":32,
			"byteOffset":38144
		},
		{
			"buffer":0,
			"byteLength":24,
			"byteOffset":38176
		},
		{
			"buffer":0,
			"byteLength":24,
			"byteOffset":38200
		},
		{
			"buffer":0,
			"byteLength":32,
			"byteOffset":38224
		},
		{
			"buffer":0,
			"byteLength":24,
			"byteOffset":38256
		},
		{
			"buffer":0,
			"byteLength":24,
			"byteOffset":38280
		},
		{
			"buffer":0,
			"byteLength":32,
			"byteOffset":38304
		},
		{
			"buffer":0,
			"byteLength":24,
			"byteOffset":38336
		}
	],
	"buffers":[
		{
			"byteLength":38360,
			"uri":"Gate-4208f0919e72cb6f34cfc166fa467497.bin"
		}
	]
}
