{
	"asset":{
		"generator":"Khronos glTF Blender I/O v3.6.28",
		"version":"2.0"
	},
	"extensionsUsed":[
		"KHR_materials_specular",
		"KHR_materials_ior"
	],
	"scene":0,
	"scenes":[
		{
			"name":"Scene",
			"nodes":[
				20
			]
		}
	],
	"nodes":[
		{
			"name":"Bone.002",
			"rotation":[
				0.021874047815799713,
				0.0004067877889610827,
				0.005379754584282637,
				0.9997461438179016
			],
			"scale":[
				0.9999999403953552,
				1,
				1
			],
			"translation":[
				9.686118573881686e-11,
				1.1651045083999634,
				-1.3444605428958312e-09
			]
		},
		{
			"name":"hand_r",
			"rotation":[
				0.09175637364387512,
				0.016495481133461,
				-0.04082691669464111,
				0.9948074221611023
			],
			"scale":[
				1,
				0.9999999403953552,
				1
			],
			"translation":[
				9.12696123123169e-08,
				0.7504908442497253,
				1.4901161193847656e-08
			]
		},
		{
			"children":[
				1
			],
			"name":"arm2_r",
			"rotation":[
				0.3577384948730469,
				0.0315798744559288,
				-0.020132040604948997,
				0.9330705404281616
			],
			"scale":[
				0.9999999403953552,
				1.0000001192092896,
				1
			],
			"translation":[
				7.636845111846924e-08,
				0.6652379631996155,
				7.450580596923828e-09
			]
		},
		{
			"children":[
				2
			],
			"name":"arm1_r",
			"rotation":[
				-0.015111016109585762,
				0.0002864014240913093,
				-0.04937000572681427,
				0.9986662268638611
			],
			"scale":[
				0.9999999403953552,
				0.9999999403953552,
				0.9999999403953552
			],
			"translation":[
				-4.98257577419281e-08,
				0.995201051235199,
				1.862645149230957e-08
			]
		},
		{
			"children":[
				3
			],
			"name":"shoulder_r",
			"rotation":[
				-0.06066698208451271,
				4.883787152465402e-09,
				-0.9534839987754822,
				0.2952757477760315
			],
			"scale":[
				0.9999995827674866,
				1,
				1
			],
			"translation":[
				9.686118573881686e-11,
				1.1651045083999634,
				-1.3444605428958312e-09
			]
		},
		{
			"name":"hand_l",
			"rotation":[
				0.0917564108967781,
				-0.01649547927081585,
				0.04082691669464111,
				0.9948074221611023
			],
			"scale":[
				1.0000001192092896,
				1,
				1
			],
			"translation":[
				4.470348358154297e-08,
				0.7504909634590149,
				2.9802322387695312e-08
			]
		},
		{
			"children":[
				5
			],
			"name":"arm2_l",
			"rotation":[
				0.3577384948730469,
				-0.031579889357089996,
				0.020131973549723625,
				0.9330705404281616
			],
			"translation":[
				1.0058283805847168e-07,
				0.665238082408905,
				3.725290298461914e-09
			]
		},
		{
			"children":[
				6
			],
			"name":"arm1_l",
			"rotation":[
				-0.015111017972230911,
				-0.00028639723313972354,
				0.049370065331459045,
				0.9986662268638611
			],
			"scale":[
				0.9999999403953552,
				0.9999999403953552,
				0.9999998807907104
			],
			"translation":[
				4.7497451305389404e-08,
				0.9952011704444885,
				3.725290298461914e-09
			]
		},
		{
			"children":[
				7
			],
			"name":"shoulder_l",
			"rotation":[
				-0.06074059009552002,
				-0.00024190277326852083,
				0.954538881778717,
				0.2918322682380676
			],
			"scale":[
				0.9999999403953552,
				0.9999999403953552,
				1
			],
			"translation":[
				-0.008410600945353508,
				1.165074110031128,
				-6.54306631986401e-07
			]
		},
		{
			"children":[
				0,
				4,
				8
			],
			"name":"Bone.001",
			"rotation":[
				-0.021471088752150536,
				5.967306293541697e-08,
				-0.001805120031349361,
				0.9997678995132446
			],
			"scale":[
				1,
				1,
				0.9999999403953552
			],
			"translation":[
				0,
				1,
				0
			]
		},
		{
			"children":[
				9
			],
			"name":"Bone"
		},
		{
			"name":"foot_r",
			"rotation":[
				0.01950136013329029,
				3.266356785047719e-08,
				-0.7555833458900452,
				0.6547622084617615
			],
			"scale":[
				1.0000001192092896,
				1,
				1
			],
			"translation":[
				-2.514570951461792e-08,
				1.1314035654067993,
				3.725290298461914e-09
			]
		},
		{
			"children":[
				11
			],
			"name":"leg2_r",
			"rotation":[
				-0.008053518831729889,
				-2.083142325304266e-09,
				0.31203600764274597,
				0.9500361680984497
			],
			"translation":[
				2.3283064365386963e-08,
				0.6502254605293274,
				9.313225746154785e-10
			]
		},
		{
			"children":[
				12
			],
			"name":"leg1_r",
			"rotation":[
				-0.3365071713924408,
				1.2157432394133139e-08,
				-0.20425333082675934,
				0.9192624688148499
			],
			"scale":[
				0.9999999403953552,
				1,
				0.9999999403953552
			],
			"translation":[
				-6.984919309616089e-10,
				0.5934045910835266,
				-1.1961674317717552e-08
			]
		},
		{
			"children":[
				13
			],
			"name":"hip_r",
			"rotation":[
				-0.7130241394042969,
				-0.24997086822986603,
				-0.6169512867927551,
				0.22018693387508392
			],
			"scale":[
				1,
				1,
				0.9999999403953552
			]
		},
		{
			"name":"foot_l",
			"rotation":[
				0.01950136013329029,
				-3.266356785047719e-08,
				0.7555833458900452,
				0.6547622084617615
			],
			"scale":[
				1.0000001192092896,
				1,
				1
			],
			"translation":[
				2.514570951461792e-08,
				1.1314035654067993,
				3.725290298461914e-09
			]
		},
		{
			"children":[
				15
			],
			"name":"leg2_l",
			"rotation":[
				-0.008053518831729889,
				2.083142325304266e-09,
				-0.31203600764274597,
				0.9500361680984497
			],
			"translation":[
				-2.3283064365386963e-08,
				0.6502254605293274,
				9.313225746154785e-10
			]
		},
		{
			"children":[
				16
			],
			"name":"leg1_l",
			"rotation":[
				-0.3365071713924408,
				-1.2157432394133139e-08,
				0.20425333082675934,
				0.9192624688148499
			],
			"scale":[
				0.9999999403953552,
				1,
				0.9999999403953552
			],
			"translation":[
				6.984919309616089e-10,
				0.5934045910835266,
				-1.1961674317717552e-08
			]
		},
		{
			"children":[
				17
			],
			"name":"hip_l",
			"rotation":[
				-0.7130241394042969,
				0.24997086822986603,
				0.6169512867927551,
				0.22018693387508392
			],
			"scale":[
				1,
				1,
				0.9999999403953552
			]
		},
		{
			"mesh":0,
			"name":"arm",
			"skin":0
		},
		{
			"children":[
				19,
				10,
				14,
				18
			],
			"name":"Armature"
		}
	],
	"materials":[
		{
			"doubleSided":true,
			"extensions":{
				"KHR_materials_specular":{
					"specularColorFactor":[
						0,
						0,
						0
					]
				},
				"KHR_materials_ior":{
					"ior":1.4500000476837158
				}
			},
			"name":"arm_mtl",
			"pbrMetallicRoughness":{
				"metallicFactor":0
			}
		},
		{
			"doubleSided":true,
			"extensions":{
				"KHR_materials_specular":{
					"specularColorFactor":[
						0,
						0,
						0
					]
				},
				"KHR_materials_ior":{
					"ior":1.4500000476837158
				}
			},
			"name":"torso_mtl",
			"pbrMetallicRoughness":{
				"metallicFactor":0
			}
		},
		{
			"doubleSided":true,
			"extensions":{
				"KHR_materials_specular":{
					"specularColorFactor":[
						0,
						0,
						0
					]
				},
				"KHR_materials_ior":{
					"ior":1.4500000476837158
				}
			},
			"name":"leg_mtl",
			"pbrMetallicRoughness":{
				"metallicFactor":0
			}
		},
		{
			"doubleSided":true,
			"extensions":{
				"KHR_materials_specular":{
					"specularColorFactor":[
						0,
						0,
						0
					]
				},
				"KHR_materials_ior":{
					"ior":1.4500000476837158
				}
			},
			"name":"leg_mtl.001",
			"pbrMetallicRoughness":{
				"metallicFactor":0
			}
		},
		{
			"doubleSided":true,
			"extensions":{
				"KHR_materials_specular":{
					"specularColorFactor":[
						0,
						0,
						0
					]
				},
				"KHR_materials_ior":{
					"ior":1.4500000476837158
				}
			},
			"name":"head_mtl",
			"pbrMetallicRoughness":{
				"metallicFactor":0
			}
		},
		{
			"doubleSided":true,
			"extensions":{
				"KHR_materials_specular":{
					"specularColorFactor":[
						0,
						0,
						0
					]
				},
				"KHR_materials_ior":{
					"ior":1.4500000476837158
				}
			},
			"name":"arm_mtl.001",
			"pbrMetallicRoughness":{
				"metallicFactor":0
			}
		}
	],
	"meshes":[
		{
			"name":"arm",
			"primitives":[
				{
					"attributes":{
						"POSITION":0,
						"NORMAL":1,
						"TEXCOORD_0":2,
						"JOINTS_0":3,
						"WEIGHTS_0":4
					},
					"indices":5,
					"material":0
				},
				{
					"attributes":{
						"POSITION":6,
						"NORMAL":7,
						"TEXCOORD_0":8,
						"JOINTS_0":9,
						"WEIGHTS_0":10
					},
					"indices":11,
					"material":1
				},
				{
					"attributes":{
						"POSITION":12,
						"NORMAL":13,
						"TEXCOORD_0":14,
						"JOINTS_0":15,
						"WEIGHTS_0":16
					},
					"indices":17,
					"material":2
				},
				{
					"attributes":{
						"POSITION":18,
						"NORMAL":19,
						"TEXCOORD_0":20,
						"JOINTS_0":21,
						"WEIGHTS_0":22
					},
					"indices":17,
					"material":3
				},
				{
					"attributes":{
						"POSITION":23,
						"NORMAL":24,
						"TEXCOORD_0":25,
						"JOINTS_0":26,
						"WEIGHTS_0":27
					},
					"indices":28,
					"material":4
				},
				{
					"attributes":{
						"POSITION":29,
						"NORMAL":30,
						"TEXCOORD_0":31,
						"JOINTS_0":32,
						"WEIGHTS_0":33
					},
					"indices":34,
					"material":5
				}
			]
		}
	],
	"skins":[
		{
			"inverseBindMatrices":35,
			"joints":[
				10,
				9,
				0,
				4,
				3,
				2,
				1,
				8,
				7,
				6,
				5,
				14,
				13,
				12,
				11,
				18,
				17,
				16,
				15
			],
			"name":"Armature"
		}
	],
	"accessors":[
		{
			"bufferView":0,
			"componentType":5126,
			"count":86,
			"max":[
				1.618281364440918,
				1.6450316905975342,
				0.9571000933647156
			],
			"min":[
				0.2584936320781708,
				-0.2745189368724823,
				-0.25000014901161194
			],
			"type":"VEC3"
		},
		{
			"bufferView":1,
			"componentType":5126,
			"count":86,
			"type":"VEC3"
		},
		{
			"bufferView":2,
			"componentType":5126,
			"count":86,
			"type":"VEC2"
		},
		{
			"bufferView":3,
			"componentType":5121,
			"count":86,
			"type":"VEC4"
		},
		{
			"bufferView":4,
			"componentType":5126,
			"count":86,
			"type":"VEC4"
		},
		{
			"bufferView":5,
			"componentType":5123,
			"count":132,
			"type":"SCALAR"
		},
		{
			"bufferView":6,
			"componentType":5126,
			"count":84,
			"max":[
				0.7499917149543762,
				2.250000238418579,
				0.5000030398368835
			],
			"min":[
				-0.7500085830688477,
				-0.5000001788139343,
				-0.4999971091747284
			],
			"type":"VEC3"
		},
		{
			"bufferView":7,
			"componentType":5126,
			"count":84,
			"type":"VEC3"
		},
		{
			"bufferView":8,
			"componentType":5126,
			"count":84,
			"type":"VEC2"
		},
		{
			"bufferView":9,
			"componentType":5121,
			"count":84,
			"type":"VEC4"
		},
		{
			"bufferView":10,
			"componentType":5126,
			"count":84,
			"type":"VEC4"
		},
		{
			"bufferView":11,
			"componentType":5123,
			"count":132,
			"type":"SCALAR"
		},
		{
			"bufferView":12,
			"componentType":5126,
			"count":86,
			"max":[
				0.649991512298584,
				-0.24999992549419403,
				0.83210289478302
			],
			"min":[
				0.024991486221551895,
				-2.25,
				-0.24999743700027466
			],
			"type":"VEC3"
		},
		{
			"bufferView":13,
			"componentType":5126,
			"count":86,
			"type":"VEC3"
		},
		{
			"bufferView":14,
			"componentType":5126,
			"count":86,
			"type":"VEC2"
		},
		{
			"bufferView":15,
			"componentType":5121,
			"count":86,
			"type":"VEC4"
		},
		{
			"bufferView":16,
			"componentType":5126,
			"count":86,
			"type":"VEC4"
		},
		{
			"bufferView":17,
			"componentType":5123,
			"count":132,
			"type":"SCALAR"
		},
		{
			"bufferView":18,
			"componentType":5126,
			"count":86,
			"max":[
				-0.050008244812488556,
				-0.2500000298023224,
				0.83210289478302
			],
			"min":[
				-0.675008237361908,
				-2.250000238418579,
				-0.24999701976776123
			],
			"type":"VEC3"
		},
		{
			"bufferView":19,
			"componentType":5126,
			"count":86,
			"type":"VEC3"
		},
		{
			"bufferView":20,
			"componentType":5126,
			"count":86,
			"type":"VEC2"
		},
		{
			"bufferView":21,
			"componentType":5121,
			"count":86,
			"type":"VEC4"
		},
		{
			"bufferView":22,
			"componentType":5126,
			"count":86,
			"type":"VEC4"
		},
		{
			"bufferView":23,
			"componentType":5126,
			"count":60,
			"max":[
				1,
				3.6724987030029297,
				0.7500001192092896
			],
			"min":[
				-0.9999999403953552,
				2.172498941421509,
				-0.7500000596046448
			],
			"type":"VEC3"
		},
		{
			"bufferView":24,
			"componentType":5126,
			"count":60,
			"type":"VEC3"
		},
		{
			"bufferView":25,
			"componentType":5126,
			"count":60,
			"type":"VEC2"
		},
		{
			"bufferView":26,
			"componentType":5121,
			"count":60,
			"type":"VEC4"
		},
		{
			"bufferView":27,
			"componentType":5126,
			"count":60,
			"type":"VEC4"
		},
		{
			"bufferView":28,
			"componentType":5123,
			"count":96,
			"type":"SCALAR"
		},
		{
			"bufferView":29,
			"componentType":5126,
			"count":86,
			"max":[
				-0.26674678921699524,
				1.65753173828125,
				0.9571000933647156
			],
			"min":[
				-1.6372592449188232,
				-0.2620188891887665,
				-0.2500002682209015
			],
			"type":"VEC3"
		},
		{
			"bufferView":30,
			"componentType":5126,
			"count":86,
			"type":"VEC3"
		},
		{
			"bufferView":31,
			"componentType":5126,
			"count":86,
			"type":"VEC2"
		},
		{
			"bufferView":32,
			"componentType":5121,
			"count":86,
			"type":"VEC4"
		},
		{
			"bufferView":33,
			"componentType":5126,
			"count":86,
			"type":"VEC4"
		},
		{
			"bufferView":34,
			"componentType":5123,
			"count":132,
			"type":"SCALAR"
		},
		{
			"bufferView":35,
			"componentType":5126,
			"count":19,
			"type":"MAT4"
		}
	],
	"bufferViews":[
		{
			"buffer":0,
			"byteLength":1032,
			"byteOffset":0,
			"target":34962
		},
		{
			"buffer":0,
			"byteLength":1032,
			"byteOffset":1032,
			"target":34962
		},
		{
			"buffer":0,
			"byteLength":688,
			"byteOffset":2064,
			"target":34962
		},
		{
			"buffer":0,
			"byteLength":344,
			"byteOffset":2752,
			"target":34962
		},
		{
			"buffer":0,
			"byteLength":1376,
			"byteOffset":3096,
			"target":34962
		},
		{
			"buffer":0,
			"byteLength":264,
			"byteOffset":4472,
			"target":34963
		},
		{
			"buffer":0,
			"byteLength":1008,
			"byteOffset":4736,
			"target":34962
		},
		{
			"buffer":0,
			"byteLength":1008,
			"byteOffset":5744,
			"target":34962
		},
		{
			"buffer":0,
			"byteLength":672,
			"byteOffset":6752,
			"target":34962
		},
		{
			"buffer":0,
			"byteLength":336,
			"byteOffset":7424,
			"target":34962
		},
		{
			"buffer":0,
			"byteLength":1344,
			"byteOffset":7760,
			"target":34962
		},
		{
			"buffer":0,
			"byteLength":264,
			"byteOffset":9104,
			"target":34963
		},
		{
			"buffer":0,
			"byteLength":1032,
			"byteOffset":9368,
			"target":34962
		},
		{
			"buffer":0,
			"byteLength":1032,
			"byteOffset":10400,
			"target":34962
		},
		{
			"buffer":0,
			"byteLength":688,
			"byteOffset":11432,
			"target":34962
		},
		{
			"buffer":0,
			"byteLength":344,
			"byteOffset":12120,
			"target":34962
		},
		{
			"buffer":0,
			"byteLength":1376,
			"byteOffset":12464,
			"target":34962
		},
		{
			"buffer":0,
			"byteLength":264,
			"byteOffset":13840,
			"target":34963
		},
		{
			"buffer":0,
			"byteLength":1032,
			"byteOffset":14104,
			"target":34962
		},
		{
			"buffer":0,
			"byteLength":1032,
			"byteOffset":15136,
			"target":34962
		},
		{
			"buffer":0,
			"byteLength":688,
			"byteOffset":16168,
			"target":34962
		},
		{
			"buffer":0,
			"byteLength":344,
			"byteOffset":16856,
			"target":34962
		},
		{
			"buffer":0,
			"byteLength":1376,
			"byteOffset":17200,
			"target":34962
		},
		{
			"buffer":0,
			"byteLength":720,
			"byteOffset":18576,
			"target":34962
		},
		{
			"buffer":0,
			"byteLength":720,
			"byteOffset":19296,
			"target":34962
		},
		{
			"buffer":0,
			"byteLength":480,
			"byteOffset":20016,
			"target":34962
		},
		{
			"buffer":0,
			"byteLength":240,
			"byteOffset":20496,
			"target":34962
		},
		{
			"buffer":0,
			"byteLength":960,
			"byteOffset":20736,
			"target":34962
		},
		{
			"buffer":0,
			"byteLength":192,
			"byteOffset":21696,
			"target":34963
		},
		{
			"buffer":0,
			"byteLength":1032,
			"byteOffset":21888,
			"target":34962
		},
		{
			"buffer":0,
			"byteLength":1032,
			"byteOffset":22920,
			"target":34962
		},
		{
			"buffer":0,
			"byteLength":688,
			"byteOffset":23952,
			"target":34962
		},
		{
			"buffer":0,
			"byteLength":344,
			"byteOffset":24640,
			"target":34962
		},
		{
			"buffer":0,
			"byteLength":1376,
			"byteOffset":24984,
			"target":34962
		},
		{
			"buffer":0,
			"byteLength":264,
			"byteOffset":26360,
			"target":34963
		},
		{
			"buffer":0,
			"byteLength":1216,
			"byteOffset":26624
		}
	],
	"buffers":[
		{
			"byteLength":27840,
			"uri":"guy-e5436e46fdbf63c52824199bc3d2118e.bin"
		}
	]
}
